<svg data-name="Layer 1" xmlns="http://www.w3.org/2000/svg" viewBox="0 0 278.75 278.75"><ellipse cx="145.46" cy="65.03" rx="57.3" ry="45.66" fill="#cef6da" stroke="#000" stroke-miterlimit="10" stroke-width=".5"/><path d="M196.76 95.23c-11.61 12.51-30.27 20.63-51.3 20.63s-39.69-8.12-51.31-20.63C85 112.31 79.58 134 79.58 157.68c0 55 29.49 99.59 65.88 99.59s65.87-44.58 65.87-99.59c0-23.68-5.45-45.37-14.57-62.45z" fill="#cef6da" stroke="#000" stroke-miterlimit="10" stroke-width=".5"/><ellipse cx="75.11" cy="163.53" rx="11.18" ry="50.31" fill="#cef6da" stroke="#000" stroke-miterlimit="10" stroke-width=".5"/><path d="M189.55 53.26c0 10.56-19.74 19.12-44.09 19.12s-44.1-8.56-44.1-19.12 27.35 2.89 43.65 3.83c14.11.8 44.54-14.39 44.54-3.83z" fill="#cef6da" stroke="#000" stroke-miterlimit="10" stroke-width=".5"/><ellipse cx="213" cy="163.53" rx="11.18" ry="50.31" fill="#cef6da" stroke="#000" stroke-miterlimit="10" stroke-width=".5"/><path d="M189.55 124.29c0-4.62-5.81-4.32-13.52-2.58v23.75c8.33-7.13 13.52-15.76 13.52-21.17zM101.36 124.29c0 5.21 4.82 13.42 12.63 20.4v-23.5c-7.32-1.55-12.63-1.55-12.63 3.1zM147.27 128.11v29.52a46.74 46.74 0 0 0 24.24-8.63v-26.18c-8.19 2.12-17.51 4.99-24.24 5.29zM118.51 122.25v26.07a47.43 47.43 0 0 0 24.24 9.26v-29.67c-7.38-.85-16.46-3.69-24.24-5.66zM223.34 144.34s-9.52-2.24-9.52 20.75v48.76M65.59 144.34s9.52-2.24 9.52 20.75v48.76" fill="#cef6da" stroke="#000" stroke-miterlimit="10" stroke-width=".5"/></svg>