<svg data-name="Layer 1" xmlns="http://www.w3.org/2000/svg" viewBox="0 0 278.75 278.75"><rect x="53.03" y="121.22" width="113.59" height="68.79" rx="3.27" fill="#cef6da" stroke="#000" stroke-linecap="round" stroke-linejoin="round" stroke-width=".5"/><path d="M160.38 121h-30.7v-8.81a1.72 1.72 0 0 0-1.71-1.71H57.61a1.72 1.72 0 0 0-1.71 1.71V121h-5.69a1.72 1.72 0 0 0-1.71 1.71v65.38a1.72 1.72 0 0 0 1.71 1.71h110.17a1.72 1.72 0 0 0 1.71-1.71v-65.35a1.72 1.72 0 0 0-1.71-1.74z" fill="#cef6da" stroke="#000" stroke-linecap="round" stroke-linejoin="round" stroke-width=".5"/><circle cx="191.89" cy="91.33" r="3.32" fill="#cef6da" stroke="#000" stroke-linecap="round" stroke-linejoin="round" stroke-width=".5"/><circle cx="191.89" cy="106.38" r="3.32" fill="#cef6da" stroke="#000" stroke-linecap="round" stroke-linejoin="round" stroke-width=".5"/><path fill="none" stroke="#000" stroke-linecap="round" stroke-linejoin="round" stroke-width=".5" d="M134.61 115.67l35.26-24.89h15.04"/><path fill="#cef6da" stroke="#000" stroke-linecap="round" stroke-linejoin="round" stroke-width=".5" d="M204.1 86.63h36.38v8.02H204.1zM204.1 101.91h36.38v8.02H204.1z"/><circle cx="191.89" cy="121.44" r="3.32" fill="#cef6da" stroke="#000" stroke-linecap="round" stroke-linejoin="round" stroke-width=".5"/><circle cx="191.89" cy="136.49" r="3.32" fill="#cef6da" stroke="#000" stroke-linecap="round" stroke-linejoin="round" stroke-width=".5"/><path fill="#cef6da" stroke="#000" stroke-linecap="round" stroke-linejoin="round" stroke-width=".5" d="M204.1 117.2h36.38v8.02H204.1zM204.1 132.48h36.38v8.02H204.1z"/></svg>