<svg data-name="Layer 1" xmlns="http://www.w3.org/2000/svg" viewBox="0 0 324.69 267.66"><path fill="none" stroke="#000" stroke-miterlimit="10" stroke-width=".25" d="M25.15 35.49h259.77M25.15 49.94h259.77M25.15 64.39h259.77M25.15 78.84h259.77M25.15 93.29h259.77M25.15 107.74h259.77M25.15 122.19h259.77M25.15 136.65h259.77M25.15 151.1h259.77M25.15 165.55h259.77M25.15 180h259.77M25.15 194.45h259.77M25.15 208.9h259.77M25.15 223.35h259.77M213.17 35.49v187.6M198.71 35.49v187.6M184.26 35.49v187.6M169.81 35.49v187.6M155.36 35.49v187.6M140.91 35.49v187.6M126.46 35.49v187.6M112.01 35.49v187.6M97.56 35.49v187.6M83.11 35.49v187.6M68.66 35.49v187.6M54.2 35.49v187.6M39.75 35.49v187.6M25.3 35.49v187.6M284.92 35.49v187.6M270.47 35.49v187.6M256.02 35.49v187.6M241.57 35.49v187.6M227.12 35.49v187.6"/><path d="M124.46 180.47A62.48 62.48 0 1 1 186.94 118a62.55 62.55 0 0 1-62.48 62.47z" fill="#cef6da"/><path d="M124.46 55.76A62.23 62.23 0 1 1 62.23 118a62.29 62.29 0 0 1 62.23-62.23m0-.5A62.73 62.73 0 1 0 187.19 118a62.73 62.73 0 0 0-62.73-62.73z"/><circle cx="124.46" cy="117.99" r="50.58" fill="#cef6da"/><path d="M124.46 67.66A50.33 50.33 0 1 1 74.13 118a50.38 50.38 0 0 1 50.33-50.33m0-.5A50.83 50.83 0 1 0 175.29 118a50.83 50.83 0 0 0-50.83-50.83z"/><path d="M124.46 162.62A44.63 44.63 0 1 1 169.09 118a44.68 44.68 0 0 1-44.63 44.62z" fill="#cef6da"/><path d="M124.46 73.61A44.38 44.38 0 1 1 80.08 118a44.43 44.43 0 0 1 44.38-44.38m0-.5A44.88 44.88 0 1 0 169.34 118a44.88 44.88 0 0 0-44.88-44.88z"/><path d="M118.26 83l-1.61-9.14a44.67 44.67 0 0 0-7.51 2l3.18 8.74a34.65 34.65 0 0 1 5.94-1.6zM124.43 82.44a34.81 34.81 0 0 1 6.08.53l1.61-9.13a45.06 45.06 0 0 0-7.73-.66v9.26z" fill="#cef6da" stroke="#000" stroke-miterlimit="10" stroke-width=".5"/><path d="M124.38 82.44v-9.26a45.06 45.06 0 0 0-7.73.66l1.61 9.16a36.27 36.27 0 0 1 6.12-.56zM112.41 84.62l-3.18-8.74a43.71 43.71 0 0 0-7 3.28l4.66 8.07a35.28 35.28 0 0 1 5.52-2.61zM136.46 84.55l3.17-8.72a44.65 44.65 0 0 0-7.51-2L130.51 83a34.72 34.72 0 0 1 5.95 1.55zM106.85 87.23l-4.66-8.07a44.18 44.18 0 0 0-6.37 4.46l6 7.15a35 35 0 0 1 5.03-3.54z" fill="#cef6da" stroke="#000" stroke-miterlimit="10" stroke-width=".5"/><path d="M101.82 90.77l-6-7.15c-1 .85-2 1.75-2.95 2.7s-1.75 1.83-2.57 2.79l7.17 6a35.75 35.75 0 0 1 4.35-4.34zM130.89 152.52l1.67 9.46a44.28 44.28 0 0 0 7.55-2l-3.28-9a34.63 34.63 0 0 1-5.94 1.54zM142.4 148.32l4.78 8.29a45.25 45.25 0 0 0 6.38-4.52l-6.13-7.31a35.29 35.29 0 0 1-5.03 3.54z" fill="#cef6da" stroke="#000" stroke-miterlimit="10" stroke-width=".5"/><path d="M136.83 150.93l3.28 9a43.85 43.85 0 0 0 7.07-3.33l-4.78-8.29a35.81 35.81 0 0 1-5.57 2.62zM151.77 140.43l7.29 6.11a45 45 0 0 0 4.46-6.4l-8.22-4.75a35.32 35.32 0 0 1-3.53 5.04zM124.77 153.06v9.61a45.77 45.77 0 0 0 7.79-.69l-1.67-9.46a35.35 35.35 0 0 1-6.12.54zM155.3 135.39l8.22 4.75a44.57 44.57 0 0 0 3.27-7.09l-8.9-3.23a34.83 34.83 0 0 1-2.59 5.57zM147.43 144.78l6.13 7.31q1.41-1.2 2.73-2.52c1-1 1.9-2 2.77-3l-7.29-6.11a35.66 35.66 0 0 1-4.34 4.32z" fill="#cef6da" stroke="#000" stroke-miterlimit="10" stroke-width=".5"/><path d="M124.46 175.6a57.62 57.62 0 0 0 57.59-55.95v-1.66h-6.79M66.85 118c0-1.2 0-2.39.11-3.58a57.61 57.61 0 0 1 57.5-54v6.79" fill="none" stroke="#000" stroke-miterlimit="10" stroke-width=".5"/><path fill="none" stroke="#000" stroke-miterlimit="10" stroke-width=".25" d="M121.99 104.05h-16.64l-8.32 14.41 8.32 14.41h16.64l8.32-14.41-8.32-14.41z"/><path fill="none" stroke="#000" stroke-miterlimit="10" stroke-width=".25" d="M119.61 104.69l-16.39 2.89-5.69 15.63 10.7 12.75 16.38-2.89 5.69-15.64-10.69-12.74z"/><path fill="none" stroke="#000" stroke-miterlimit="10" stroke-width=".25" d="M117.37 105.73l-15.63 5.69-2.89 16.39 12.74 10.69 15.64-5.69 2.89-16.38-12.75-10.7z"/><path fill="none" stroke="#000" stroke-miterlimit="10" stroke-width=".25" d="M115.35 107.15l-14.41 8.32v16.64l14.41 8.32 14.41-8.32v-16.64l-14.41-8.32z"/><path fill="none" stroke="#000" stroke-miterlimit="10" stroke-width=".25" d="M113.61 108.89l-12.75 10.7 2.89 16.39 15.64 5.69 12.74-10.7-2.88-16.38-15.64-5.7z"/><path fill="none" stroke="#000" stroke-miterlimit="10" stroke-width=".25" d="M112.19 110.92l-10.69 12.74 5.69 15.64 16.39 2.89 10.69-12.75-5.69-15.63-16.39-2.89z"/><path fill="none" stroke="#000" stroke-miterlimit="10" stroke-width=".25" d="M111.15 113.16l-8.32 14.41 8.32 14.41h16.64l8.32-14.41-8.32-14.41h-16.64z"/><path fill="none" stroke="#000" stroke-miterlimit="10" stroke-width=".25" d="M110.52 115.54l-5.69 15.64 10.69 12.74 16.39-2.89 5.69-15.63-10.7-12.75-16.38 2.89z"/><path fill="none" stroke="#000" stroke-miterlimit="10" stroke-width=".25" d="M110.3 118l-2.89 16.38 12.75 10.7 15.64-5.69 2.89-16.39-12.75-10.69L110.3 118z"/><path fill="none" stroke="#000" stroke-miterlimit="10" stroke-width=".25" d="M110.52 120.46v16.64l14.41 8.32 14.41-8.32v-16.64l-14.41-8.32-14.41 8.32z"/><path fill="none" stroke="#000" stroke-miterlimit="10" stroke-width=".25" d="M111.16 122.84l2.89 16.39 15.64 5.69 12.74-10.7-2.89-16.39-15.63-5.69-12.75 10.7z"/><path fill="none" stroke="#000" stroke-miterlimit="10" stroke-width=".25" d="M112.21 125.08l5.69 15.63 16.38 2.89 10.7-12.75-5.69-15.63-16.39-2.89-10.69 12.75z"/><path fill="none" stroke="#000" stroke-miterlimit="10" stroke-width=".25" d="M113.62 127.1l8.32 14.41h16.64l8.32-14.41-8.32-14.41h-16.64l-8.32 14.41z"/><path fill="none" stroke="#000" stroke-miterlimit="10" stroke-width=".25" d="M115.37 128.84l10.7 12.75 16.38-2.89 5.7-15.64-10.7-12.75-16.39 2.89-5.69 15.64z"/><path fill="none" stroke="#000" stroke-miterlimit="10" stroke-width=".25" d="M117.39 130.25l12.75 10.7 15.64-5.69 2.89-16.39-12.75-10.69-15.64 5.69-2.89 16.38z"/><path fill="none" stroke="#000" stroke-miterlimit="10" stroke-width=".25" d="M119.63 131.29l14.41 8.33 14.41-8.33v-16.63l-14.41-8.33-14.41 8.33v16.63z"/><path fill="none" stroke="#000" stroke-miterlimit="10" stroke-width=".25" d="M122.02 131.93l15.63 5.69 12.75-10.69-2.89-16.39-15.64-5.69-12.74 10.7 2.89 16.38z"/><path fill="none" stroke="#000" stroke-miterlimit="10" stroke-width=".25" d="M124.47 132.15l16.39 2.88 10.7-12.74-5.69-15.64-16.39-2.89-10.7 12.75 5.69 15.64z"/><path fill="none" stroke="#000" stroke-miterlimit="10" stroke-width=".25" d="M126.93 131.93h16.64l8.32-14.41-8.32-14.41h-16.64l-8.32 14.41 8.32 14.41z"/><path fill="none" stroke="#000" stroke-miterlimit="10" stroke-width=".25" d="M129.32 131.29l16.38-2.89 5.69-15.64-10.69-12.75-16.39 2.89-5.69 15.64 10.7 12.75z"/><path fill="none" stroke="#000" stroke-miterlimit="10" stroke-width=".25" d="M131.55 130.24l15.64-5.69 2.89-16.39-12.75-10.69-15.64 5.69-2.88 16.39 12.74 10.69z"/><path fill="none" stroke="#000" stroke-miterlimit="10" stroke-width=".25" d="M133.57 128.82l14.41-8.32v-16.64l-14.41-8.31-14.41 8.31v16.64l14.41 8.32z"/><path fill="none" stroke="#000" stroke-miterlimit="10" stroke-width=".25" d="M135.32 127.08l12.74-10.7-2.89-16.38-15.63-5.7-12.75 10.7 2.89 16.39 15.64 5.69z"/><path fill="none" stroke="#000" stroke-miterlimit="10" stroke-width=".25" d="M136.73 125.06l10.7-12.75-5.69-15.64-16.39-2.89-10.7 12.75 5.69 15.64 16.39 2.89z"/><path fill="none" stroke="#000" stroke-miterlimit="10" stroke-width=".25" d="M137.77 122.82l8.32-14.41L137.77 94h-16.64l-8.32 14.41 8.32 14.41h16.64z"/><path fill="none" stroke="#000" stroke-miterlimit="10" stroke-width=".25" d="M138.41 120.43l5.69-15.63-10.7-12.75-16.38 2.89-5.69 15.64 10.69 12.74 16.39-2.89z"/><path fill="none" stroke="#000" stroke-miterlimit="10" stroke-width=".25" d="M138.62 117.97l2.89-16.38-12.75-10.7-15.63 5.69-2.89 16.39 12.74 10.7 15.64-5.7z"/><path fill="none" stroke="#000" stroke-miterlimit="10" stroke-width=".25" d="M138.4 115.52V98.88l-14.41-8.32-14.41 8.32v16.64l14.41 8.32 14.41-8.32z"/><path fill="none" stroke="#000" stroke-miterlimit="10" stroke-width=".25" d="M137.76 113.13l-2.89-16.38-15.63-5.7-12.75 10.7 2.89 16.39 15.64 5.69 12.74-10.7z"/><path fill="none" stroke="#000" stroke-miterlimit="10" stroke-width=".25" d="M136.72 110.9l-5.69-15.64-16.39-2.89-10.7 12.75 5.7 15.63 16.38 2.89 10.7-12.74z"/><path fill="none" stroke="#000" stroke-miterlimit="10" stroke-width=".25" d="M135.3 108.88l-8.32-14.41h-16.64l-8.32 14.41 8.32 14.41h16.64l8.32-14.41z"/><path fill="none" stroke="#000" stroke-miterlimit="10" stroke-width=".25" d="M133.55 107.13l-10.69-12.74-16.39 2.89-5.69 15.63 10.7 12.75 16.38-2.89 5.69-15.64z"/><path fill="none" stroke="#000" stroke-miterlimit="10" stroke-width=".25" d="M131.53 105.72l-12.75-10.7-15.63 5.69-2.89 16.39L113 127.8l15.64-5.69 2.89-16.39z"/><path fill="none" stroke="#000" stroke-miterlimit="10" stroke-width=".25" d="M129.29 104.68l-14.41-8.32-14.41 8.32v16.64l14.41 8.32 14.41-8.32v-16.64z"/><path fill="none" stroke="#000" stroke-miterlimit="10" stroke-width=".25" d="M126.91 104.04l-15.64-5.69-12.74 10.7 2.89 16.38 15.63 5.69 12.75-10.69-2.89-16.39z"/><path fill="none" stroke="#000" stroke-miterlimit="10" stroke-width=".25" d="M124.45 103.83l-16.39-2.89-10.69 12.75 5.69 15.63 16.39 2.89 10.69-12.75-5.69-15.63z"/><circle cx="124.46" cy="117.99" r="13.95" fill="#cef6da" stroke="#000" stroke-miterlimit="10" stroke-width=".5"/><path fill="#cef6da" stroke="#000" stroke-miterlimit="10" stroke-width=".5" d="M134.24 123.63v-11.29l-9.78-5.64-9.77 5.64v11.29l9.77 5.64 9.78-5.64z"/><rect x="207.26" y="124.32" width="66.68" height="88.93" rx="10.75" fill="#cef6da" stroke="#000" stroke-miterlimit="10" stroke-width=".5"/><path stroke="#000" stroke-miterlimit="10" d="M213.17 131.04h49.85v3.3h-49.85z"/><rect x="222.09" y="141.51" width="33.61" height="38.72" rx="16.81" fill="#cef6da" stroke="#000" stroke-miterlimit="10" stroke-width=".5"/><path d="M238.83 162.21a16.49 16.49 0 0 1 16.49 16.49v17.77h-33V178.7a16.49 16.49 0 0 1 16.51-16.49zM239.69 146.07a13.81 13.81 0 1 1-14 18M239.4 145.48s0 18.64-15.32 18.64" fill="#cef6da" stroke="#000" stroke-miterlimit="10" stroke-width=".5"/><path stroke="#000" stroke-miterlimit="10" d="M213.17 195.21h49.85v3.3h-49.85zM213.17 201.87h38.98v3.3h-38.98z"/></svg>