<svg xmlns="http://www.w3.org/2000/svg" aria-label="Community Pick" viewBox="0 0 512 512" width="50"><path fill="#cff6d9" d="M256 512a48.62 48.62 0 0 1-40.27-20.93 34.15 34.15 0 0 0-42.39-11.36 49.21 49.21 0 0 1-69.75-40.26 34.15 34.15 0 0 0-31-31 49.21 49.21 0 0 1-40.26-69.75 34.15 34.15 0 0 0-11.36-42.39 49.21 49.21 0 0 1 0-80.54 34.15 34.15 0 0 0 11.36-42.39 49.21 49.21 0 0 1 40.26-69.75 34.15 34.15 0 0 0 31-31 49.21 49.21 0 0 1 69.75-40.26 34.15 34.15 0 0 0 42.39-11.36 49.21 49.21 0 0 1 80.54 0 34.17 34.17 0 0 0 42.4 11.36 49.21 49.21 0 0 1 69.75 40.26 34.15 34.15 0 0 0 31 31 49.21 49.21 0 0 1 40.26 69.75 34.15 34.15 0 0 0 11.36 42.39 49.21 49.21 0 0 1 0 80.54 34.15 34.15 0 0 0-11.36 42.39 49.21 49.21 0 0 1-40.26 69.75 34.15 34.15 0 0 0-31 31 49.21 49.21 0 0 1-69.75 40.26 34.15 34.15 0 0 0-42.39 11.36A48.62 48.62 0 0 1 256 512z"/><path fill="#055e20" d="M386.31 221.14v-9.77a22.81 22.81 0 0 0-22.78-22.78h-96.36l10.28-25.09a40.33 40.33 0 0 0-6.81-44.95 22.8 22.8 0 0 0-36 3.21l-.1.15-45.2 74.71A15.08 15.08 0 0 0 179 192.4l-32.26-.24h-.09a15.21 15.21 0 0 0-15.19 15.2V342a15.22 15.22 0 0 0 15.2 15.2h32.25a15.23 15.23 0 0 0 14.84-11.93L227 356.65a154.66 154.66 0 0 0 50 8.28h63.7a22.81 22.81 0 0 0 22.78-22.78v-9.77a22.65 22.65 0 0 0-2.57-10.38 22.8 22.8 0 0 0 12.29-20.22V292a22.62 22.62 0 0 0-3-11.23 22.77 22.77 0 0 0 10.8-19.29v-9.77a22.66 22.66 0 0 0-3.69-12.42 22.77 22.77 0 0 0 9-18.15zm-15 0a7.79 7.79 0 0 1-7.78 7.78h-57.42a7.5 7.5 0 0 0 0 15h52.09a7.79 7.79 0 0 1 7.8 7.78v9.78a7.79 7.79 0 0 1-7.78 7.78h-52.11a7.5 7.5 0 0 0 0 15h44.3a7.79 7.79 0 0 1 7.79 7.74v9.77a7.79 7.79 0 0 1-7.79 7.78h-44.3a7.5 7.5 0 0 0 0 15h34.51a7.79 7.79 0 0 1 7.78 7.79v9.76a7.79 7.79 0 0 1-7.78 7.79h-63.7a139.64 139.64 0 0 1-45.12-7.48l-37.75-12.87V265.7a7.5 7.5 0 0 0-15 0V342a.2.2 0 0 1-.2.2h-32.24a.2.2 0 0 1-.2-.2V207.36a.2.2 0 0 1 .05-.14.17.17 0 0 1 .13-.06l32.27.23a.2.2 0 0 1 .19.2v27.68a7.5 7.5 0 1 0 15 0V216a17.4 17.4 0 0 0 3.52-4 .6.6 0 0 0 .09-.15l49.66-82.08a7.81 7.81 0 0 1 12.3-1 25.4 25.4 0 0 1 4.22 28.46c-.07.14-.13.28-.19.43l-14.59 35.63a7.5 7.5 0 0 0 6.94 10.3h107.53a7.79 7.79 0 0 1 7.78 7.78z"/><path fill="#055e20" d="M256 512a48.62 48.62 0 0 1-40.27-20.93 34.15 34.15 0 0 0-42.39-11.36 49.21 49.21 0 0 1-69.75-40.26 34.15 34.15 0 0 0-31-31 49.21 49.21 0 0 1-40.26-69.75 34.15 34.15 0 0 0-11.36-42.39 49.21 49.21 0 0 1 0-80.54 34.15 34.15 0 0 0 11.36-42.39 49.21 49.21 0 0 1 40.26-69.75 34.15 34.15 0 0 0 31-31 49.21 49.21 0 0 1 69.75-40.26 34.15 34.15 0 0 0 42.39-11.36 49.21 49.21 0 0 1 80.54 0 34.17 34.17 0 0 0 42.4 11.36 49.21 49.21 0 0 1 69.75 40.26 34.15 34.15 0 0 0 31 31 49.21 49.21 0 0 1 40.26 69.75 34.15 34.15 0 0 0 11.36 42.39 49.21 49.21 0 0 1 0 80.54 34.15 34.15 0 0 0-11.36 42.39 49.21 49.21 0 0 1-40.26 69.75 34.15 34.15 0 0 0-31 31 49.21 49.21 0 0 1-69.75 40.26 34.15 34.15 0 0 0-42.39 11.36A48.62 48.62 0 0 1 256 512zm-68.25-50.49A49.15 49.15 0 0 1 228 482.45a34.2 34.2 0 0 0 56 0 49.15 49.15 0 0 1 61-16.34 34.2 34.2 0 0 0 48.47-28 49.17 49.17 0 0 1 44.66-44.66 34.2 34.2 0 0 0 28-48.47 49.15 49.15 0 0 1 16.34-61 34.2 34.2 0 0 0 0-56 49.15 49.15 0 0 1-16.34-61 34.2 34.2 0 0 0-28-48.47 49.17 49.17 0 0 1-44.66-44.66 34.2 34.2 0 0 0-48.47-28 49.15 49.15 0 0 1-61-16.34 34.19 34.19 0 0 0-56 0 49.15 49.15 0 0 1-61 16.34 34.2 34.2 0 0 0-48.47 28 49.17 49.17 0 0 1-44.66 44.66 34.2 34.2 0 0 0-28 48.47 49.15 49.15 0 0 1-16.34 61 34.2 34.2 0 0 0 0 56 49.15 49.15 0 0 1 16.34 61 34.2 34.2 0 0 0 28 48.47 49.17 49.17 0 0 1 44.66 44.66 34.2 34.2 0 0 0 48.47 28 49.12 49.12 0 0 1 20.75-4.6z"/><path fill="#055e20" d="M256 454.27A198.29 198.29 0 0 1 58.35 271.78a7.5 7.5 0 0 1 15-1.17 183.27 183.27 0 0 0 365.38 0 7.5 7.5 0 1 1 14.95 1.17A198.27 198.27 0 0 1 256 454.27zM65.84 248.27h-.6a7.49 7.49 0 0 1-6.88-8.06 198.27 198.27 0 0 1 395.27-.21 7.5 7.5 0 0 1-14.95 1.19 183.28 183.28 0 0 0-365.37.15 7.5 7.5 0 0 1-7.47 6.93z"/></svg>