<svg xmlns="http://www.w3.org/2000/svg" aria-label="Judge’s Pick" viewBox="0 0 512 512" width="50"><path fill="#cff6d9" d="M256 512a48.62 48.62 0 0 1-40.27-20.93 34.15 34.15 0 0 0-42.39-11.36 49.21 49.21 0 0 1-69.75-40.26 34.15 34.15 0 0 0-31-31 49.21 49.21 0 0 1-40.26-69.75 34.15 34.15 0 0 0-11.36-42.39 49.21 49.21 0 0 1 0-80.54 34.15 34.15 0 0 0 11.36-42.39 49.21 49.21 0 0 1 40.26-69.75 34.15 34.15 0 0 0 31-31 49.21 49.21 0 0 1 69.75-40.26 34.15 34.15 0 0 0 42.39-11.36 49.21 49.21 0 0 1 80.54 0 34.17 34.17 0 0 0 42.4 11.36 49.21 49.21 0 0 1 69.75 40.26 34.15 34.15 0 0 0 31 31 49.21 49.21 0 0 1 40.26 69.75 34.15 34.15 0 0 0 11.36 42.39 49.21 49.21 0 0 1 0 80.54 34.15 34.15 0 0 0-11.36 42.39 49.21 49.21 0 0 1-40.26 69.75 34.15 34.15 0 0 0-31 31 49.21 49.21 0 0 1-69.75 40.26 34.15 34.15 0 0 0-42.39 11.36A48.62 48.62 0 0 1 256 512z"/><path fill="#055e20" d="M491.07 215.73a34.15 34.15 0 0 1-11.36-42.39 49.21 49.21 0 0 0-40.26-69.75 34.15 34.15 0 0 1-31-31 49.21 49.21 0 0 0-69.75-40.26 34.15 34.15 0 0 1-42.39-11.36 49.21 49.21 0 0 0-80.54 0 34.15 34.15 0 0 1-42.39 11.36 49.21 49.21 0 0 0-69.75 40.26 34.15 34.15 0 0 1-31 31 49.21 49.21 0 0 0-40.26 69.75 34.15 34.15 0 0 1-11.36 42.39 49.21 49.21 0 0 0 0 80.54 34.15 34.15 0 0 1 11.36 42.39 49.21 49.21 0 0 0 40.26 69.75 34.15 34.15 0 0 1 31 31 49.21 49.21 0 0 0 69.75 40.26 34.15 34.15 0 0 1 42.39 11.36 49.21 49.21 0 0 0 80.54 0 34.15 34.15 0 0 1 42.39-11.36 49.21 49.21 0 0 0 69.75-40.26 34.15 34.15 0 0 1 31-31 49.21 49.21 0 0 0 40.26-69.75 34.15 34.15 0 0 1 11.36-42.39 49.21 49.21 0 0 0 0-80.54zM482.45 284a49.15 49.15 0 0 0-16.34 61 34.2 34.2 0 0 1-28 48.47 49.17 49.17 0 0 0-44.66 44.66 34.2 34.2 0 0 1-48.47 28 49.15 49.15 0 0 0-61 16.34 34.2 34.2 0 0 1-56 0 49.14 49.14 0 0 0-61-16.34 34.2 34.2 0 0 1-48.47-28 49.17 49.17 0 0 0-44.66-44.66 34.2 34.2 0 0 1-28-48.47 49.15 49.15 0 0 0-16.34-61 34.2 34.2 0 0 1 0-56 49.15 49.15 0 0 0 16.34-61 34.2 34.2 0 0 1 28-48.47 49.17 49.17 0 0 0 44.66-44.66 34.2 34.2 0 0 1 48.47-28 49.15 49.15 0 0 0 61-16.34 34.2 34.2 0 0 1 56 0l6.13-4.31-6.11 4.33a49.15 49.15 0 0 0 61 16.34 34.2 34.2 0 0 1 48.47 28 49.17 49.17 0 0 0 44.66 44.66 34.2 34.2 0 0 1 28 48.47 49.15 49.15 0 0 0 16.34 61 34.2 34.2 0 0 1 0 56z"/><path fill="#055e20" d="M446.76 263.72a7.5 7.5 0 0 0-8.07 6.89 183.27 183.27 0 0 1-365.38 0 7.5 7.5 0 1 0-15 1.17 198.27 198.27 0 0 0 395.29 0 7.5 7.5 0 0 0-6.84-8.06zM65.24 248.24h.6a7.5 7.5 0 0 0 7.47-6.91 183.28 183.28 0 0 1 365.37-.15 7.5 7.5 0 0 0 14.95-1.18 198.27 198.27 0 0 0-395.27.16 7.49 7.49 0 0 0 6.88 8.08z"/><path fill="#055e20" d="M388 215.6a16.84 16.84 0 0 0-15.37-11.71l-74.51-3.39-26.25-69.82a17 17 0 0 0-31.76 0l-26.24 69.82-74.51 3.39a17 17 0 0 0-9.82 30.21l58.28 46.54L168 352.55a17 17 0 0 0 25.7 18.67l62.3-41.05 62.27 41.05A17 17 0 0 0 344 352.55l-19.79-71.91 58.28-46.54a16.83 16.83 0 0 0 5.51-18.5zm-14.91 6.78L311 272a7.53 7.53 0 0 0-2.55 7.86l21.11 76.67a2 2 0 0 1-3 2.17l-66.4-43.77a7.5 7.5 0 0 0-8.26 0l-66.4 43.77a2 2 0 0 1-3-2.17l21.11-76.67a7.53 7.53 0 0 0-2.55-7.86l-62.16-49.62a2 2 0 0 1 1.14-3.51l79.44-3.62a7.47 7.47 0 0 0 6.68-4.85l28-74.44a2 2 0 0 1 3.68 0l28 74.44a7.5 7.5 0 0 0 6.68 4.85l79.48 3.62a2 2 0 0 1 1.14 3.51z"/></svg>